<?xml version="1.0" standalone="no"?>
<!DOCTYPE svg PUBLIC "-//W3C//DTD SVG 20010904//EN"
 "http://www.w3.org/TR/2001/REC-SVG-20010904/DTD/svg10.dtd">
<svg version="1.0" xmlns="http://www.w3.org/2000/svg"
 width="290.000000pt" height="96.000000pt" viewBox="0 0 290.000000 96.000000"
 preserveAspectRatio="xMidYMid meet">

<g transform="translate(0.000000,96.000000) scale(0.100000,-0.100000)"
fill="#000000" stroke="none">
<path d="M2050 480 l0 -480 425 0 425 0 0 480 0 480 -425 0 -425 0 0 -480z
m373 213 c9 -20 7 -27 -10 -45 -28 -28 -70 -18 -79 19 -14 55 65 79 89 26z
m-35 -138 c8 -40 8 -40 58 -41 73 -2 74 -3 74 -19 0 -12 -13 -15 -60 -15 -49
0 -58 -3 -54 -15 5 -11 23 -15 78 -15 l72 0 37 -65 c34 -58 40 -65 62 -59 36
9 33 -21 -4 -41 -29 -14 -30 -14 -49 13 -10 15 -29 46 -42 70 l-24 42 -78 0
c-88 0 -76 -12 -102 112 -9 47 -10 70 -3 77 15 15 25 2 35 -44z m-68 -97 c-32
-57 -23 -112 24 -155 29 -27 44 -33 81 -33 51 0 89 20 109 58 13 25 14 25 24
5 9 -17 6 -25 -21 -51 -103 -98 -267 -29 -267 113 0 40 12 68 44 103 29 33 33
8 6 -40z"/>
<path d="M285 665 c0 -84 0 -85 25 -85 15 0 20 3 13 8 -16 10 -16 144 0 154 7
5 2 8 -13 8 -25 0 -25 -1 -25 -85z"/>
<path d="M378 743 c8 -3 12 -29 12 -78 0 -49 -4 -75 -12 -78 -7 -3 -2 -6 12
-6 25 -1 25 0 25 84 0 84 0 85 -25 84 -14 0 -19 -3 -12 -6z"/>
<path d="M647 733 c11 -10 41 -49 66 -88 40 -59 47 -66 47 -43 0 14 -3 28 -7
30 -5 2 -25 29 -46 61 -26 40 -44 57 -59 57 -21 0 -21 0 -1 -17z"/>
<path d="M745 740 c3 -5 12 -7 20 -3 21 7 19 13 -6 13 -11 0 -18 -4 -14 -10z"/>
<path d="M825 665 c0 -78 2 -85 20 -85 18 0 20 7 20 85 0 78 -2 85 -20 85 -18
0 -20 -7 -20 -85z"/>
<path d="M918 731 c25 -24 30 -87 11 -124 -12 -22 -12 -22 10 -3 27 25 30 96
4 118 -30 25 -49 32 -25 9z"/>
<path d="M1015 665 c0 -78 2 -85 20 -85 18 0 20 7 20 85 0 78 -2 85 -20 85
-18 0 -20 -7 -20 -85z"/>
<path d="M1138 740 c-22 -13 -41 -74 -33 -102 8 -26 34 -58 47 -58 5 0 2 10
-6 22 -9 12 -16 41 -16 63 0 22 7 51 16 63 17 25 16 26 -8 12z"/>
<path d="M1218 725 c9 -11 18 -22 19 -24 2 -2 3 7 3 20 0 18 -5 25 -20 25 -18
0 -18 -1 -2 -21z"/>
<path d="M1336 734 c-4 -9 -3 -22 2 -28 17 -22 43 -106 37 -116 -4 -6 5 -10
21 -10 20 0 24 3 17 13 -6 6 -23 45 -38 85 -16 39 -29 72 -31 72 -1 0 -5 -7
-8 -16z"/>
<path d="M1455 665 c0 -78 2 -85 20 -85 18 0 20 7 20 85 0 78 -2 85 -20 85
-18 0 -20 -7 -20 -85z"/>
<path d="M1523 739 c20 -12 23 -59 5 -77 -9 -9 -9 -12 -1 -12 12 0 43 38 43
52 0 13 -39 48 -52 48 -7 0 -5 -5 5 -11z"/>
<path d="M1607 744 c-8 -8 1 -24 14 -24 5 0 9 7 9 15 0 15 -12 20 -23 9z"/>
<path d="M1690 731 c-14 -26 -5 -45 36 -76 34 -26 45 -59 22 -68 -8 -4 -9 -6
-2 -6 20 -2 37 28 30 51 -3 13 -21 33 -41 46 -35 22 -47 56 -22 65 9 4 9 6 0
6 -7 1 -17 -8 -23 -18z"/>
<path d="M1751 733 c7 -10 15 -20 16 -22 2 -2 3 3 3 11 0 9 -7 19 -16 22 -15
6 -15 4 -3 -11z"/>
<path d="M520 732 c0 -5 11 -37 25 -71 13 -35 22 -68 19 -72 -3 -5 4 -9 14 -9
18 0 18 5 -11 80 -17 44 -34 80 -39 80 -4 0 -8 -4 -8 -8z"/>
<path d="M1226 613 c-4 -9 -2 -21 4 -27 7 -7 10 -2 10 17 0 31 -5 34 -14 10z"/>
<path d="M1681 609 c-1 -16 4 -26 14 -26 9 0 11 4 6 11 -4 6 -11 18 -14 26 -3
9 -6 5 -6 -11z"/>
<path d="M466 595 c-3 -9 0 -15 9 -15 9 0 12 6 9 15 -4 8 -7 15 -9 15 -2 0 -5
-7 -9 -15z"/>
<path d="M640 590 c-12 -8 -10 -10 8 -10 13 0 20 4 17 10 -7 12 -6 12 -25 0z"/>
<path d="M1275 590 c-4 -6 3 -10 14 -10 25 0 27 6 6 13 -8 4 -17 2 -20 -3z"/>
<path d="M315 505 c-46 -45 -26 -96 61 -155 24 -17 49 -40 55 -51 16 -30 3
-68 -28 -80 -14 -5 -23 -12 -20 -15 3 -4 23 2 44 12 77 38 66 110 -27 171 -27
18 -57 44 -66 58 -15 23 -15 27 0 50 31 46 89 28 115 -35 8 -22 10 -18 10 25
1 31 -2 45 -8 36 -6 -10 -13 -11 -29 -2 -35 19 -81 13 -107 -14z"/>
<path d="M545 518 c-2 -7 0 -29 4 -48 8 -31 9 -32 10 -8 1 16 11 34 29 47 l27
20 -33 1 c-18 0 -35 -6 -37 -12z"/>
<path d="M730 520 c0 -5 6 -10 14 -10 18 0 27 -13 37 -54 6 -27 7 -23 8 22 1
51 1 52 -29 52 -16 0 -30 -4 -30 -10z"/>
<path d="M934 512 c-87 -55 -90 -235 -5 -285 16 -9 37 -17 48 -17 14 1 12 4
-8 15 -70 38 -79 213 -15 278 25 25 78 22 104 -5 30 -33 42 -71 42 -134 0 -64
-19 -115 -51 -138 -17 -11 -19 -16 -8 -16 9 0 28 9 43 21 77 61 81 206 7 273
-31 29 -117 33 -157 8z"/>
<path d="M1236 515 c17 -12 19 -28 19 -145 0 -119 -2 -133 -19 -146 -18 -13
-14 -14 40 -14 45 1 55 3 42 11 -14 8 -18 24 -18 74 l0 65 30 0 c34 0 54 -26
64 -83 9 -47 37 -78 65 -70 12 3 23 9 26 13 3 5 -4 6 -14 3 -16 -4 -22 5 -37
56 -12 46 -23 65 -42 75 l-25 13 26 7 c32 8 61 58 53 92 -10 40 -48 56 -142
60 -76 3 -84 1 -68 -11z m152 -22 c6 -9 12 -34 12 -54 0 -44 -27 -69 -72 -69
-28 0 -28 0 -28 68 0 38 3 72 7 76 12 12 67 -3 81 -21z"/>
<path d="M1556 516 c17 -13 19 -27 19 -146 0 -119 -2 -133 -19 -146 -18 -12
-6 -14 97 -14 l117 0 -1 48 -1 47 -12 -33 c-15 -43 -35 -54 -89 -50 l-42 3 0
145 c0 85 -4 148 -10 152 -5 4 -25 8 -44 8 -33 0 -34 -1 -15 -14z"/>
<path d="M1710 520 c0 -5 5 -10 10 -10 6 0 17 -15 25 -32 l14 -33 1 43 c0 38
-2 42 -25 42 -14 0 -25 -4 -25 -10z"/>
<path d="M648 378 c-3 -141 -3 -143 -28 -155 -22 -11 -18 -13 45 -12 52 0 64
3 48 9 -22 9 -23 13 -23 155 0 138 -1 145 -20 145 -18 0 -20 -8 -22 -142z"/>
<path d="M1690 420 c0 -6 -12 -22 -26 -35 -20 -19 -23 -25 -11 -25 9 0 23 -12
31 -27 15 -27 15 -27 16 35 0 34 -2 62 -5 62 -3 0 -5 -5 -5 -10z"/>
<path d="M290 265 l0 -50 43 -1 c34 -2 38 0 19 7 -13 5 -31 27 -42 51 l-20 43
0 -50z"/>
</g>
</svg>
